# xmcd
#
# Track frame offsets:
#	182
#	17475
#	37910
#	61042
#	85935
#	100502
#	132372
#	159695
#	185765
#	225597
#	248187
#	271410
#	306387
#	331705
#
# Disc length: 4803 seconds
#
# Revision: 1
# Processed by: cddbd v1.5.2PL0 Copyright (c) Steve Scherf et al.
# Submitted via: EZCDAudioConverter 7.0.3.1
#
DISCID=ae12c10e
DTITLE=Peter Green - Green and Guitar - The Best of Peter Green 1977-81
DYEAR=1996
DGENRE=Blues
TTITLE0=In the Skies
TTITLE1=Loser Two Times
TTITLE2=Cryin' Won't Bring You Back
TTITLE3=Last Train to San Antone
TTITLE4=Apostle
TTITLE5=Little Dreamer
TTITLE6=The Clown
TTITLE7=Gotta See Her Tonight
TTITLE8=White Sky (Love That Evil Woman)
TTITLE9=Carry My Love
TTITLE10=Slabo Day
TTITLE11=A Fool No More
TTITLE12=Baby When the Sun Goes Down
TTITLE13=Funky Jam
EXTD=
EXTT0=
EXTT1=
EXTT2=
EXTT3=
EXTT4=
EXTT5=
EXTT6=
EXTT7=
EXTT8=
EXTT9=
EXTT10=
EXTT11=
EXTT12=
EXTT13=
PLAYORDER=
